<svg xmlns="http://www.w3.org/2000/svg" width="15.72" height="11.415" viewBox="0 0 15.72 11.415">
  <g id="envelope" transform="translate(0 -57.75)">
    <g id="Group_28" data-name="Group 28" transform="translate(0 57.75)">
      <path id="Path_17" data-name="Path 17" d="M13.8,57.75H1.922A1.881,1.881,0,0,0,0,59.584v7.747a1.881,1.881,0,0,0,1.922,1.834H13.8a1.881,1.881,0,0,0,1.922-1.834V59.587A1.879,1.879,0,0,0,13.8,57.75Zm1.044,9.581a1.022,1.022,0,0,1-1.044,1H1.922a1.022,1.022,0,0,1-1.044-1V59.587a1.022,1.022,0,0,1,1.044-1H13.8a1.022,1.022,0,0,1,1.044,1v7.744Z" transform="translate(0 -57.75)"/>
      <path id="Path_18" data-name="Path 18" d="M63.964,112.926l3.9-3.29a.4.4,0,0,0,.033-.593.467.467,0,0,0-.63-.031l-5.375,4.541-1.049-.881s-.007-.006-.007-.009a.651.651,0,0,0-.073-.059L56.5,109.009a.464.464,0,0,0-.63.034.4.4,0,0,0,.036.593l3.944,3.318-3.927,3.461a.4.4,0,0,0-.02.593.469.469,0,0,0,.326.133.462.462,0,0,0,.3-.112l3.986-3.51,1.081.909a.465.465,0,0,0,.594,0l1.111-.937,3.963,3.544a.466.466,0,0,0,.63-.016.4.4,0,0,0-.016-.593Z" transform="translate(-54.022 -107.315)"/>
    </g>
  </g>
</svg>
