<svg xmlns="http://www.w3.org/2000/svg" width="26" height="26" viewBox="0 0 26 26">
  <g id="Group_69" data-name="Group 69" transform="translate(-1533 -90)">
    <g id="Group_22" data-name="Group 22" transform="translate(1532.717 90)">
      <rect id="Rectangle_20" data-name="Rectangle 20" width="26" height="26" rx="2" transform="translate(0.283)" fill="#ea4c89"/>
    </g>
    <g id="dribbble-logo" transform="translate(1539.216 96.5)">
      <path id="Path_11" data-name="Path 11" d="M6.662.065a6.653,6.653,0,1,0,6.662,6.653A6.665,6.665,0,0,0,6.662.065Zm4.383,3.14a5.588,5.588,0,0,1,1.243,3.426,13.981,13.981,0,0,0-2.6-.251A10.585,10.585,0,0,0,8.4,6.455c-.037-.089-.074-.179-.112-.269-.113-.266-.235-.529-.361-.789A7.668,7.668,0,0,0,11.044,3.205Zm-4.383-2.1a5.607,5.607,0,0,1,3.708,1.4,6.43,6.43,0,0,1-2.907,2,30.338,30.338,0,0,0-2.07-3.246A5.609,5.609,0,0,1,6.662,1.106Zm-2.417.546A36.169,36.169,0,0,1,6.3,4.858a21.317,21.317,0,0,1-5.086.677H1.162A5.642,5.642,0,0,1,4.244,1.652ZM1.034,6.726c0-.046,0-.092,0-.139h.148a21.068,21.068,0,0,0,5.62-.8c.152.3.3.6.43.9-.063.018-.125.037-.187.056a9,9,0,0,0-4.6,3.706A5.592,5.592,0,0,1,1.034,6.726Zm5.628,5.62a5.6,5.6,0,0,1-3.433-1.17,7.773,7.773,0,0,1,4.41-3.489l.006,0a23.523,23.523,0,0,1,1.19,4.225A5.6,5.6,0,0,1,6.662,12.347Zm3.187-.991A24.571,24.571,0,0,0,8.77,7.409,7.427,7.427,0,0,1,9.9,7.324a8.38,8.38,0,0,1,2.31.322A5.629,5.629,0,0,1,9.849,11.356Z" transform="translate(0 -0.065)" fill="#fff"/>
    </g>
  </g>
</svg>
