<svg xmlns="http://www.w3.org/2000/svg" width="26" height="26" viewBox="0 0 26 26">
  <g id="Group_70" data-name="Group 70" transform="translate(-1574 -90)">
    <g id="Group_26" data-name="Group 26" transform="translate(1574.001 90)">
      <g id="Group_25" data-name="Group 25">
        <rect id="Rectangle_20" data-name="Rectangle 20" width="26" height="26" rx="2" transform="translate(-0.001)" fill="#333"/>
      </g>
      <path id="medium" d="M13.671,3.882l1.185-1.134V2.5H10.75L7.823,9.785,4.493,2.5H.188v.248L1.572,4.415A.581.581,0,0,1,1.76,4.9v6.551a.747.747,0,0,1-.2.65L0,13.992v.245H4.423v-.248L2.863,12.1a.77.77,0,0,1-.215-.65V5.785L6.531,14.24h.451L10.32,5.785V12.52c0,.178,0,.214-.116.331L9,14.013v.249h5.826v-.248L13.672,12.88a.344.344,0,0,1-.132-.331V4.213a.343.343,0,0,1,.132-.331Z" transform="translate(5.571 4.928)" fill="#fff"/>
    </g>
  </g>
</svg>
