<svg xmlns="http://www.w3.org/2000/svg" width="25.999" height="25.999" viewBox="0 0 25.999 25.999">
  <g id="Group_68" data-name="Group 68" transform="translate(-1491.432 -90)">
    <path id="Path_21" data-name="Path 21" d="M1.857,0H24.142A1.857,1.857,0,0,1,26,1.857V24.142A1.857,1.857,0,0,1,24.142,26H1.857A1.857,1.857,0,0,1,0,24.142V1.857A1.857,1.857,0,0,1,1.857,0Z" transform="translate(1491.432 90)" fill="#0057ff"/>
    <g id="behance" transform="translate(1497.003 98.357)">
      <path id="Path_1" data-name="Path 1" d="M8.352,11.557A2.4,2.4,0,0,0,6.531,9.04,2.129,2.129,0,0,0,7.893,6.964C7.893,4.983,6.412,4.5,4.7,4.5H0v9.944H4.835c1.813,0,3.516-.867,3.516-2.887ZM2.193,6.2H4.25c.791,0,1.5.222,1.5,1.136,0,.844-.554,1.184-1.338,1.184H2.193Zm0,6.558V10.017h2.39c.965,0,1.576.4,1.576,1.42s-.729,1.319-1.621,1.319Z" transform="translate(0 -4.5)" fill="#fff"/>
      <path id="Path_2" data-name="Path 2" d="M17.021,15.854a3.219,3.219,0,0,0,3.38-2.422H18.65a1.643,1.643,0,0,1-1.568.94,1.631,1.631,0,0,1-1.773-1.833h5.21c.009-.117.017-.243.017-.37,0-2.13-1.25-3.906-3.515-3.906a3.623,3.623,0,0,0-3.7,3.811A3.512,3.512,0,0,0,17.021,15.854Zm-.062-6.1A1.476,1.476,0,0,1,18.54,11.3H15.312A1.549,1.549,0,0,1,16.959,9.757Z" transform="translate(-4.324 -5.721)" fill="#fff"/>
      <path id="Path_3" data-name="Path 3" d="M15.667,5.273h4.045v.98H15.667Z" transform="translate(-5.084 -4.751)" fill="#fff"/>
    </g>
  </g>
</svg>
