<svg xmlns="http://www.w3.org/2000/svg" width="26" height="26" viewBox="0 0 26 26">
  <g id="Group_67" data-name="Group 67" transform="translate(-1450 -90)">
    <rect id="Rectangle_20" data-name="Rectangle 20" width="26" height="26" rx="2" transform="translate(1450 90)" fill="#0073b2"/>
    <path id="LinkedIn__x28_alt_x29_" d="M6.392,16.386H3.6V8.049h2.79ZM5,6.91H4.979A1.445,1.445,0,1,1,5.015,4.03,1.446,1.446,0,1,1,5,6.91Zm11.452,9.476H13.66v-4.46c0-1.121-.4-1.886-1.413-1.886a1.524,1.524,0,0,0-1.431,1.014,1.863,1.863,0,0,0-.093.675v4.657H7.935s.036-7.555,0-8.337h2.789V9.231a2.77,2.77,0,0,1,2.513-1.378c1.836,0,3.212,1.191,3.212,3.753ZM10.706,9.257l.018-.026v.026Z" transform="translate(1453.211 92.47)" fill="#fff"/>
  </g>
</svg>
