<svg xmlns="http://www.w3.org/2000/svg" width="14.25" height="14.253" viewBox="0 0 14.25 14.253">
  <path id="Path_24" data-name="Path 24" d="M3.749,9.342a14.909,14.909,0,0,0,4.959,3.885,7.718,7.718,0,0,0,2.775.821c.067,0,.131.006.2.006a2.3,2.3,0,0,0,1.782-.766.064.064,0,0,0,.012-.015,7.5,7.5,0,0,1,.562-.582c.137-.131.277-.268.411-.408a1.406,1.406,0,0,0-.006-2.094l-1.75-1.75a1.417,1.417,0,0,0-1.025-.472,1.464,1.464,0,0,0-1.037.469L9.587,9.478c-.1-.055-.2-.1-.288-.151a3.6,3.6,0,0,1-.32-.175,11.033,11.033,0,0,1-2.635-2.4,6.353,6.353,0,0,1-.891-1.421c.274-.248.53-.507.777-.76.087-.09.178-.181.268-.271a1.493,1.493,0,0,0,.483-1.048A1.481,1.481,0,0,0,6.5,2.2L5.63,1.337c-.1-.1-.2-.2-.3-.3-.192-.2-.393-.4-.591-.585A1.452,1.452,0,0,0,3.717,0,1.5,1.5,0,0,0,2.68.451L1.591,1.54A2.238,2.238,0,0,0,.924,2.973a5.389,5.389,0,0,0,.4,2.33A13.553,13.553,0,0,0,3.749,9.342ZM1.635,3.034a1.54,1.54,0,0,1,.463-.99L3.181.961A.784.784,0,0,1,3.717.713a.744.744,0,0,1,.524.253c.2.181.379.37.577.571.1.1.2.2.3.309l.868.868a.791.791,0,0,1,.274.545.791.791,0,0,1-.274.545l-.271.274c-.271.274-.524.533-.8.78L4.9,4.872a.569.569,0,0,0-.146.646l.009.023A6.853,6.853,0,0,0,5.784,7.2,11.644,11.644,0,0,0,8.591,9.761a4.168,4.168,0,0,0,.384.21,3.6,3.6,0,0,1,.32.175l.032.017a.609.609,0,0,0,.282.073.618.618,0,0,0,.434-.2l1.089-1.089a.771.771,0,0,1,.533-.259.731.731,0,0,1,.515.259L13.938,10.7a.7.7,0,0,1-.009,1.1c-.122.131-.25.256-.387.387a8.386,8.386,0,0,0-.609.632,1.6,1.6,0,0,1-1.249.53c-.05,0-.1,0-.151-.006a7.012,7.012,0,0,1-2.51-.751,14.163,14.163,0,0,1-4.72-3.7A12.972,12.972,0,0,1,2,5.064,4.7,4.7,0,0,1,1.635,3.034Z" transform="translate(-0.812 0.1)" stroke="#000" stroke-width="0.2"/>
</svg>
